# Blender v2.79 (sub 0) OBJ File: ''
# www.blender.org
o Cube.002
v -0.052798 0.175683 -0.000047
v 0.141640 -0.000000 -0.000047
v -0.052798 0.000000 -0.000047
v -0.052798 0.135989 0.080062
v -0.141640 0.071897 0.072529
v -0.052798 0.092568 0.139658
v 0.134453 0.441815 -0.107909
v 0.134453 0.441815 -0.133539
v -0.141640 0.000000 0.057982
v -0.141640 0.082495 0.057982
v 0.606802 0.114131 0.025582
v 0.762549 -0.000000 -0.000047
v 0.606802 0.114131 -0.000047
v -0.141640 0.092184 0.038429
v -0.141640 0.000000 0.044685
v -0.141640 0.092184 0.044685
v 0.305385 -0.000000 -0.000047
v 0.264311 0.159451 -0.000047
v 0.134453 0.441815 -0.107909
v 0.134453 0.489709 -0.133539
v 0.141640 0.175683 -0.000047
v 0.266658 0.441815 -0.107909
v 0.079408 0.175683 0.025582
v 0.079408 0.175683 0.025582
v -0.052798 0.175683 0.025582
v -0.052798 0.175683 0.025582
v 0.266658 0.441815 -0.107909
v -0.052798 0.000000 0.139658
v 0.141640 0.078798 0.139658
v 0.240881 -0.000000 0.134344
v 0.531640 0.031016 0.064066
v 0.244490 0.076336 0.119723
v 0.570907 0.074438 0.043961
v 0.687386 -0.000000 0.064066
v 0.726653 -0.000000 0.043961
v 0.230907 0.119757 0.070541
v -0.141640 0.000000 0.038429
v 0.109128 0.135990 0.080062
v 0.328891 0.441815 -0.133539
v -0.141640 0.092184 0.044685
v 0.266658 0.489709 -0.107909
v 0.328891 0.489709 -0.133539
v 0.328873 0.489709 -0.107909
v 0.134453 0.489709 -0.107909
v 0.328873 0.441815 -0.107909
v 0.328876 0.480724 -0.112717
v 0.328891 0.441815 -0.133539
v 0.328891 0.489709 -0.133539
v 0.328876 0.450800 -0.112717
v 0.520233 0.480724 -0.112585
v 0.328887 0.480724 -0.128730
v 0.328887 0.450800 -0.128731
v 0.520236 0.459263 -0.117113
v 0.520236 0.472261 -0.117113
v 0.520244 0.450800 -0.128598
v 0.520233 0.450800 -0.112585
v 0.520244 0.480724 -0.128598
v 0.558890 0.472261 -0.117087
v 0.520241 0.472261 -0.124069
v 0.520241 0.459263 -0.124069
v 0.558890 0.459263 -0.117087
v 0.558894 0.472261 -0.124043
v 0.558894 0.459263 -0.124043
v 0.762549 -0.000000 0.025582
v 0.218491 0.159451 0.025582
v -0.052798 -0.175683 -0.000047
v 0.141640 -0.175683 -0.000047
v -0.052798 -0.135990 0.080062
v -0.141640 -0.071897 0.072529
v -0.141640 -0.082496 0.057982
v 0.134453 -0.441815 -0.107909
v 0.134453 -0.441815 -0.133539
v 0.606802 -0.114131 0.025582
v 0.606802 -0.114131 -0.000047
v -0.141640 -0.092184 0.038429
v -0.141640 -0.092184 0.044685
v 0.264311 -0.159450 -0.000047
v 0.218491 -0.159451 0.025582
v 0.134453 -0.489709 -0.133539
v 0.134453 -0.441815 -0.107909
v 0.266659 -0.441814 -0.107909
v 0.079408 -0.175683 0.025582
v 0.079408 -0.175683 0.025582
v -0.052798 -0.175683 0.025582
v -0.052798 -0.175683 0.025582
v 0.266659 -0.441814 -0.107909
v 0.141640 -0.078798 0.139658
v -0.052798 -0.092568 0.139658
v 0.531640 -0.031016 0.064066
v 0.244490 -0.076335 0.119723
v 0.570907 -0.074437 0.043961
v 0.230907 -0.119757 0.070541
v 0.109128 -0.135989 0.080062
v -0.141640 0.000000 0.072529
v 0.266659 -0.489709 -0.107909
v 0.134453 -0.489709 -0.107909
v 0.328891 -0.441815 -0.133539
v 0.328873 -0.489709 -0.107909
v 0.328877 -0.480724 -0.112717
v 0.328873 -0.441814 -0.107909
v 0.328891 -0.441815 -0.133539
v 0.328891 -0.489709 -0.133539
v 0.328891 -0.489709 -0.133539
v 0.520233 -0.480724 -0.112585
v 0.328877 -0.450799 -0.112717
v 0.328888 -0.480724 -0.128730
v 0.520236 -0.459262 -0.117113
v 0.520233 -0.450799 -0.112585
v 0.520244 -0.450799 -0.128598
v 0.328888 -0.450799 -0.128731
v 0.520244 -0.480724 -0.128598
v 0.520236 -0.472261 -0.117113
v 0.558890 -0.459262 -0.117087
v 0.520241 -0.459262 -0.124069
v 0.558895 -0.472261 -0.124043
v 0.558895 -0.459262 -0.124043
v 0.520241 -0.472261 -0.124069
v 0.141640 -0.000000 0.139658
v -0.141640 -0.092184 0.044685
v 0.558890 -0.472261 -0.117087
vt 0.215302 0.105573
vt 0.230916 0.250929
vt 0.156109 0.179325
vt 0.732017 0.601718
vt 0.724177 0.662031
vt 0.695689 0.609158
vt 0.220666 0.528867
vt 0.232199 0.719164
vt 0.220666 0.724878
vt 0.718304 0.689155
vt 0.733044 0.660214
vt 0.296044 0.523154
vt 0.282877 0.586919
vt 0.282932 0.523154
vt 0.744148 0.659372
vt 0.724678 0.690894
vt 0.741149 0.658554
vt 0.293914 0.311230
vt 0.448334 0.374318
vt 0.469801 0.479586
vt 0.774612 0.472456
vt 0.754228 0.342972
vt 0.766514 0.346323
vt 0.282877 0.525208
vt 0.263304 0.540771
vt 0.270353 0.523154
vt 0.145283 0.544706
vt 0.118906 0.708855
vt 0.118906 0.523154
vt 0.686859 0.084439
vt 0.632951 0.226092
vt 0.632951 0.040390
vt 0.765226 0.594916
vt 0.777512 0.598267
vt 0.064998 0.040390
vt 0.064998 0.040390
vt 0.064998 0.040390
vt 0.064998 0.040390
vt 0.064998 0.040390
vt 0.539373 0.388807
vt 0.499060 0.496945
vt 0.492016 0.388807
vt 0.266714 0.833962
vt 0.220120 0.826910
vt 0.266216 0.821753
vt 0.224589 0.823429
vt 0.215540 0.831216
vt 0.211410 0.831136
vt 0.478105 0.550273
vt 0.500320 0.555208
vt 0.152457 0.108575
vt 0.121397 0.147274
vt 0.732017 0.534567
vt 0.693229 0.533355
vt 0.290109 0.177177
vt 0.378857 0.060496
vt 0.453664 0.132100
vt 0.064998 0.040390
vt 0.064998 0.040390
vt 0.064998 0.040390
vt 0.064998 0.040390
vt 0.502591 0.342972
vt 0.280621 0.597401
vt 0.270354 0.621037
vt 0.394994 0.040390
vt 0.469801 0.111994
vt 0.171660 0.557755
vt 0.196163 0.523154
vt 0.196163 0.557755
vt 0.196163 0.631282
vt 0.171660 0.631282
vt 0.309156 0.523154
vt 0.311616 0.544892
vt 0.309156 0.549912
vt 0.346841 0.548954
vt 0.334554 0.526497
vt 0.346841 0.523154
vt 0.282877 0.623084
vt 0.270354 0.621037
vt 0.064998 0.040390
vt 0.064998 0.040390
vt 0.064998 0.040390
vt 0.572414 0.946872
vt 0.601143 0.761833
vt 0.601143 0.946872
vt 0.322268 0.523154
vt 0.311616 0.528173
vt 0.319808 0.544892
vt 0.322268 0.549912
vt 0.319808 0.528173
vt 0.381622 0.523154
vt 0.379305 0.535144
vt 0.379305 0.527882
vt 0.514955 0.946872
vt 0.543684 0.761833
vt 0.543684 0.946872
vt 0.616517 0.761833
vt 0.631891 0.946872
vt 0.616517 0.946872
vt 0.616517 0.761833
vt 0.601143 0.946872
vt 0.601143 0.761833
vt 0.366780 0.523154
vt 0.360130 0.544650
vt 0.360130 0.523154
vt 0.373430 0.539873
vt 0.381622 0.539873
vt 0.373430 0.523154
vt 0.375746 0.527882
vt 0.375746 0.535144
vt 0.403150 0.523154
vt 0.406708 0.530416
vt 0.403150 0.530416
vt 0.399816 0.539187
vt 0.403150 0.524064
vt 0.403150 0.540097
vt 0.353485 0.544749
vt 0.346841 0.523154
vt 0.353485 0.523154
vt 0.399816 0.523154
vt 0.396482 0.540097
vt 0.396482 0.524064
vt 0.609765 0.127010
vt 0.551376 0.061332
vt 0.551376 0.040390
vt 0.762325 0.488107
vt 0.733681 0.491004
vt 0.765226 0.540090
vt 0.240402 0.830253
vt 0.228738 0.827728
vt 0.777512 0.517633
vt 0.632951 0.342972
vt 0.589458 0.147952
vt 0.331836 0.229167
vt 0.539373 0.552422
vt 0.096916 0.253076
vt 0.171723 0.324681
vt 0.647734 0.432967
vt 0.639893 0.372654
vt 0.648760 0.374470
vt 0.243731 0.528867
vt 0.232199 0.719164
vt 0.232199 0.523154
vt 0.634020 0.345529
vt 0.296044 0.650684
vt 0.282932 0.650684
vt 0.640395 0.343790
vt 0.659865 0.375312
vt 0.656866 0.376130
vt 0.371426 0.470143
vt 0.224388 0.363041
vt 0.690328 0.562228
vt 0.669944 0.691712
vt 0.678042 0.546578
vt 0.243731 0.605466
vt 0.263304 0.621029
vt 0.250781 0.623084
vt 0.145283 0.544706
vt 0.171660 0.708855
vt 0.145283 0.730408
vt 0.064998 0.567203
vt 0.118906 0.708855
vt 0.064998 0.752904
vt 0.680942 0.439768
vt 0.064998 0.040390
vt 0.064998 0.040390
vt 0.064998 0.040390
vt 0.064998 0.040390
vt 0.064998 0.040390
vt 0.579686 0.496945
vt 0.586731 0.388807
vt 0.228592 0.835219
vt 0.257173 0.832031
vt 0.256578 0.839464
vt 0.224278 0.839351
vt 0.600641 0.550273
vt 0.608945 0.482037
vt 0.090337 0.185973
vt 0.647733 0.500117
vt 0.611405 0.425526
vt 0.081135 0.431443
vt 0.064998 0.040390
vt 0.064998 0.040390
vt 0.064998 0.040390
vt 0.064998 0.040390
vt 0.576156 0.342972
vt 0.539373 0.342972
vt 0.261048 0.548836
vt 0.256255 0.603411
vt 0.155942 0.503047
vt 0.064998 0.451550
vt 0.220666 0.631282
vt 0.196163 0.596681
vt 0.220666 0.596681
vt 0.220666 0.523154
vt 0.196163 0.523154
vt 0.298504 0.528173
vt 0.296044 0.549912
vt 0.296044 0.523154
vt 0.334554 0.523154
vt 0.322268 0.545610
vt 0.322268 0.545610
vt 0.250781 0.525201
vt 0.263304 0.523154
vt 0.064998 0.040390
vt 0.064998 0.040390
vt 0.064998 0.040390
vt 0.543684 0.761833
vt 0.572414 0.946872
vt 0.543684 0.946872
vt 0.662639 0.781967
vt 0.671265 0.761833
vt 0.671265 0.786617
vt 0.306696 0.528173
vt 0.309156 0.523154
vt 0.309156 0.549912
vt 0.381622 0.523154
vt 0.383939 0.535144
vt 0.381622 0.539873
vt 0.486225 0.761833
vt 0.514955 0.946872
vt 0.486225 0.946872
vt 0.662639 0.761833
vt 0.647265 0.946872
vt 0.647265 0.761833
vt 0.647265 0.946872
vt 0.631891 0.761833
vt 0.647265 0.761833
vt 0.373430 0.523154
vt 0.366780 0.544650
vt 0.366780 0.523154
vt 0.389814 0.539873
vt 0.389814 0.523154
vt 0.383939 0.527882
vt 0.387498 0.535144
vt 0.406708 0.530416
vt 0.410267 0.523154
vt 0.410267 0.530416
vt 0.393148 0.539187
vt 0.389815 0.524064
vt 0.393148 0.523154
vt 0.353485 0.544750
vt 0.360130 0.523154
vt 0.360130 0.544749
vt 0.393148 0.523154
vt 0.396482 0.540097
vt 0.393148 0.539187
vt 0.492987 0.127010
vt 0.680942 0.494594
vt 0.256630 0.845882
vt 0.693229 0.517051
vt 0.513294 0.147952
vt 0.469801 0.342972
vt 0.539373 0.496945
vt 0.232199 0.523154
vt 0.711330 0.687253
vt 0.295989 0.586919
vt 0.727677 0.691712
vt 0.275827 0.542826
vt 0.145283 0.730408
vt 0.686859 0.270141
vt 0.198492 0.832627
vt 0.469801 0.482037
vt 0.064998 0.040390
vt 0.171660 0.523154
vt 0.334554 0.526497
vt 0.064998 0.040390
vt 0.572414 0.761833
vt 0.514955 0.761833
vt 0.631891 0.761833
vt 0.616517 0.946872
vt 0.366780 0.544650
vt 0.406708 0.523154
vt 0.399816 0.523154
vt 0.346841 0.544750
vt 0.399816 0.539187
vt 0.256869 0.824580
vt 0.612643 0.338461
vt 0.243731 0.724878
vt 0.627047 0.347431
vt 0.643394 0.342972
vt 0.682231 0.688361
vt 0.171660 0.523154
vt 0.118906 0.523154
vt 0.693229 0.436417
vt 0.578426 0.555208
vt 0.608945 0.501329
vt 0.064998 0.040390
vt 0.139805 0.523154
vt 0.196163 0.631282
vt 0.298504 0.544892
vt 0.334554 0.548954
vt 0.250781 0.525201
vt 0.064998 0.040390
vt 0.572414 0.761833
vt 0.662639 0.766482
vt 0.306696 0.544892
vt 0.514955 0.761833
vt 0.662639 0.946872
vt 0.631891 0.946872
vt 0.373430 0.544650
vt 0.387498 0.527882
vt 0.406708 0.523154
vt 0.389815 0.540097
vt 0.353485 0.523154
vt 0.396482 0.524064
vt 0.649397 0.543680
vt 0.490108 0.338461
vn 0.0000 -0.0000 -1.0000
vn -0.5349 0.6829 0.4976
vn -0.5349 0.6829 0.4975
vn -0.8178 0.5754 -0.0000
vn -1.0000 0.0000 -0.0000
vn 0.5911 0.8066 0.0000
vn 0.1312 0.9914 0.0000
vn 0.3737 0.1922 0.9074
vn -0.0000 0.4484 0.8939
vn -0.6849 0.7287 0.0000
vn -0.0892 -0.3996 -0.9124
vn 0.0211 0.3135 -0.9493
vn 0.2449 0.3605 -0.9000
vn -0.1268 -0.2087 -0.9697
vn -0.4983 -0.1216 -0.8584
vn -0.0000 0.0000 1.0000
vn 0.2138 0.1740 0.9613
vn 0.3298 0.6901 0.6442
vn 0.1409 0.7612 0.6331
vn -0.3974 0.0000 -0.9176
vn 0.0520 0.7346 0.6765
vn 0.0000 -0.4484 -0.8939
vn 0.3097 -0.3543 -0.8823
vn 0.3827 0.0000 -0.9239
vn -0.6029 0.0000 0.7979
vn 0.0000 1.0000 -0.0000
vn 1.0000 0.0000 0.0007
vn 1.0000 -0.0000 0.0006
vn 0.0000 -1.0000 0.0000
vn 0.0000 0.0000 0.0000
vn -0.0007 0.0000 1.0000
vn 1.0000 -0.0000 0.0008
vn 1.0000 -0.0001 0.0007
vn 0.0007 0.0000 -1.0000
vn 0.3870 0.5281 0.7559
vn 0.1508 0.7614 0.6306
vn 0.1508 0.7600 0.6322
vn 0.1506 0.7556 0.6374
vn -0.0000 0.8082 0.5889
vn 0.1170 0.3282 0.9373
vn 0.1277 0.9652 0.2283
vn 0.0450 0.3859 0.9214
vn 0.1914 0.1759 0.9656
vn -0.5349 -0.6829 0.4976
vn -0.8178 -0.5754 0.0000
vn 0.5911 -0.8066 0.0000
vn 0.1135 -0.9726 0.2029
vn 0.3737 -0.1922 0.9074
vn 0.0000 -0.4484 0.8939
vn -0.6849 -0.7287 0.0000
vn 0.3386 0.2301 -0.9124
vn -0.2686 -0.1632 -0.9493
vn 0.2436 0.0164 -0.9697
vn -0.3863 0.3376 -0.8584
vn -0.1065 -0.4362 -0.8935
vn 0.2138 -0.1740 0.9613
vn 0.3298 -0.6901 0.6442
vn 0.1506 -0.7556 0.6374
vn 0.1505 -0.7530 0.6406
vn 0.1508 -0.7600 0.6322
vn 0.0000 -0.8082 0.5889
vn 0.0000 0.4484 -0.8939
vn 0.0000 0.0000 -0.9239
vn -0.3535 0.1464 -0.9239
vn -0.4082 -0.0911 -0.9083
vn 0.3870 -0.5281 0.7559
vn 0.0967 -0.8288 0.5511
vn 0.1170 -0.3282 0.9373
vn 0.1116 -0.9561 0.2709
vn 0.0450 -0.3859 0.9214
vn 0.0535 0.0000 0.9986
vn 0.1135 0.9726 0.2029
vn 0.1226 0.6154 0.7786
vn 0.0725 0.3643 0.9285
vn 0.1505 0.7530 0.6406
vn 0.1455 0.3043 0.9414
vn 0.0967 0.8288 0.5511
vn 0.2372 0.7598 0.6053
vn 0.1116 0.9561 0.2709
vn 0.1312 -0.9914 0.0000
vn 0.1226 -0.6154 0.7786
vn 0.0725 -0.3643 0.9285
vn 0.1409 -0.7611 0.6331
vn 0.0520 -0.7346 0.6765
vn 0.1455 -0.3043 0.9414
vn 0.1508 -0.7614 0.6306
vn 0.2372 -0.7598 0.6053
vn 0.1277 -0.9652 0.2283
vn 0.1914 -0.1759 0.9656
s 1
f 1/1/1 2/2/1 3/3/1
f 4/4/2 5/5/3 6/6/2
f 1/7/4 7/8/4 8/9/4
f 9/10/5 5/5/5 10/11/5
f 11/12/6 12/13/6 13/14/6
f 14/15/5 15/16/5 16/17/5
f 17/18/1 13/19/1 12/20/1
f 18/21/7 11/22/7 13/23/7
f 19/24/5 20/25/5 8/26/5
f 21/27/8 22/28/8 23/29/8
f 24/30/9 7/31/9 25/32/9
f 14/15/10 26/33/10 1/34/10
f 26/35/11 24/36/12 25/37/13
f 23/38/14 27/39/15 24/36/12
f 28/40/16 29/41/16 6/42/16
f 30/43/17 31/44/17 32/45/17
f 33/46/18 34/47/18 35/48/18
f 36/49/19 29/41/19 32/50/19
f 14/51/20 3/3/20 37/52/20
f 38/53/21 6/6/21 29/54/21
f 21/55/22 8/56/22 39/57/22
f 22/58/23 7/59/24 27/39/15
f 16/60/16 25/37/13 40/61/16
f 5/62/25 28/40/25 6/42/25
f 20/25/26 41/63/26 42/64/26
f 39/57/1 20/65/1 42/66/1
f 22/67/16 43/68/16 41/69/16
f 22/67/16 44/70/16 19/71/16
f 45/72/27 46/73/28 43/74/27
f 22/75/29 47/76/29 45/77/29
f 42/64/30 43/78/30 48/79/30
f 39/80/16 48/81/30 47/82/16
f 49/83/31 50/84/31 46/85/31
f 47/86/27 49/87/27 45/72/27
f 43/74/27 51/88/32 48/89/33
f 47/86/27 51/88/32 52/90/32
f 50/91/27 53/92/27 54/93/27
f 51/94/34 55/95/34 52/96/34
f 49/97/29 55/98/29 56/99/29
f 46/100/26 57/101/26 51/102/26
f 53/103/31 58/104/31 54/105/31
f 55/106/27 53/92/27 56/107/27
f 57/108/27 54/93/27 59/109/27
f 57/108/27 60/110/27 55/106/27
f 61/111/28 62/112/28 58/113/28
f 54/114/26 62/115/26 59/116/26
f 60/117/34 62/118/34 63/119/34
f 60/120/29 61/121/29 53/122/29
f 16/17/2 4/4/2 26/33/2
f 15/16/5 10/11/5 16/17/5
f 11/123/35 35/124/35 64/125/35
f 65/126/36 38/53/37 36/127/38
f 23/128/39 4/4/39 38/53/39
f 36/129/40 31/130/40 33/46/40
f 21/131/41 65/126/41 18/21/41
f 65/132/42 33/133/42 11/123/42
f 2/2/1 18/134/1 17/18/1
f 29/41/43 30/135/43 32/50/43
f 66/136/1 2/2/1 67/137/1
f 68/138/44 69/139/44 70/140/44
f 71/141/45 66/142/45 72/143/45
f 69/139/5 9/144/5 70/140/5
f 12/13/46 73/145/46 74/146/46
f 15/147/5 75/148/5 76/149/5
f 17/18/1 74/150/1 77/151/1
f 77/152/47 73/153/47 78/154/47
f 79/155/5 80/156/5 72/157/5
f 81/158/48 67/159/48 82/160/48
f 71/161/49 83/162/49 84/163/49
f 75/148/50 85/164/50 76/149/50
f 85/165/51 83/166/52 82/167/53
f 82/167/53 86/168/54 81/169/55
f 87/170/16 28/40/16 88/171/16
f 89/172/56 30/173/56 90/174/56
f 34/47/57 91/175/57 35/48/57
f 92/176/58 87/170/59 93/177/60
f 75/178/20 3/3/20 66/136/20
f 93/179/61 88/180/61 68/138/61
f 67/137/62 72/181/62 66/136/62
f 81/169/55 71/182/63 80/183/64
f 76/184/16 84/185/65 85/165/51
f 69/186/25 28/40/25 94/187/25
f 79/155/29 95/188/29 96/189/29
f 97/190/1 79/191/1 72/181/1
f 98/192/16 81/193/16 95/194/16
f 96/195/16 81/193/16 80/196/16
f 99/197/32 100/198/27 98/199/27
f 81/200/16 101/201/16 97/202/16
f 102/203/29 98/204/29 95/188/29
f 97/205/16 103/206/30 102/207/30
f 104/208/31 105/209/31 99/210/31
f 105/211/32 101/212/27 100/213/27
f 106/214/27 98/199/27 103/215/27
f 101/216/27 106/214/27 103/215/27
f 104/217/27 107/218/27 108/219/27
f 109/220/34 106/221/34 110/222/34
f 105/223/26 109/224/26 110/225/26
f 111/226/29 99/227/29 106/228/29
f 112/229/31 113/230/31 107/231/31
f 107/218/27 109/232/27 108/219/27
f 111/233/27 112/234/27 104/217/27
f 114/235/27 111/233/27 109/232/27
f 113/236/27 115/237/27 116/238/27
f 115/239/29 112/240/29 117/241/29
f 114/242/34 115/243/34 117/244/34
f 113/245/26 114/246/26 107/247/26
f 68/138/44 76/149/44 85/164/44
f 70/140/5 15/147/5 76/149/5
f 35/124/66 73/248/66 64/125/66
f 78/154/67 93/179/67 82/249/67
f 82/249/61 68/138/61 85/164/61
f 89/172/68 92/250/68 91/175/68
f 67/251/69 78/154/69 82/249/69
f 91/252/70 78/253/70 73/248/70
f 2/2/1 77/151/1 67/137/1
f 87/170/71 30/135/71 118/254/71
f 1/1/1 21/55/1 2/2/1
f 4/4/2 10/11/2 5/5/3
f 1/7/4 25/255/4 7/8/4
f 9/10/5 94/256/5 5/5/5
f 11/12/6 64/257/6 12/13/6
f 14/15/5 37/258/5 15/16/5
f 17/18/1 18/134/1 13/19/1
f 18/21/72 65/126/72 11/22/72
f 19/24/5 44/259/5 20/25/5
f 21/27/8 39/260/8 22/28/8
f 24/30/9 27/261/9 7/31/9
f 14/15/10 16/17/10 26/33/10
f 26/35/11 23/38/14 24/36/12
f 23/38/14 22/58/23 27/39/15
f 28/40/16 118/254/16 29/41/16
f 30/43/73 34/262/73 31/44/73
f 33/46/74 31/130/74 34/47/74
f 36/49/38 38/263/37 29/41/75
f 14/51/20 1/1/20 3/3/20
f 38/53/39 4/4/39 6/6/39
f 21/55/22 1/1/22 8/56/22
f 22/58/16 19/264/16 7/59/64
f 16/60/16 26/35/11 25/37/13
f 5/62/25 94/187/25 28/40/25
f 20/25/26 44/259/26 41/63/26
f 39/57/1 8/56/1 20/65/1
f 22/67/16 45/265/16 43/68/16
f 22/67/16 41/69/16 44/70/16
f 45/72/27 49/87/27 46/73/28
f 22/75/16 39/266/16 47/76/16
f 42/64/26 41/63/26 43/78/26
f 39/80/16 42/267/30 48/81/30
f 49/83/31 56/268/31 50/84/31
f 47/86/27 52/90/32 49/87/27
f 43/74/27 46/73/28 51/88/32
f 47/86/27 48/89/33 51/88/32
f 50/91/27 56/107/27 53/92/27
f 51/94/34 57/269/34 55/95/34
f 49/97/29 52/270/29 55/98/29
f 46/100/26 50/271/26 57/101/26
f 53/103/31 61/272/31 58/104/31
f 55/106/27 60/110/27 53/92/27
f 57/108/27 50/91/27 54/93/27
f 57/108/27 59/109/27 60/110/27
f 61/111/28 63/273/28 62/112/28
f 54/114/26 58/274/26 62/115/26
f 60/117/34 59/275/34 62/118/34
f 60/120/29 63/276/29 61/121/29
f 16/17/2 10/11/2 4/4/2
f 15/16/5 9/10/5 10/11/5
f 11/123/76 33/133/76 35/124/76
f 65/126/77 23/128/77 38/53/77
f 23/128/39 26/33/39 4/4/39
f 36/129/78 32/277/78 31/130/78
f 21/131/79 23/128/79 65/126/79
f 65/132/36 36/278/38 33/133/36
f 2/2/1 21/55/1 18/134/1
f 29/41/71 118/254/71 30/135/71
f 66/136/1 3/3/1 2/2/1
f 68/138/44 88/180/44 69/139/44
f 71/141/45 84/279/45 66/142/45
f 69/139/5 94/280/5 9/144/5
f 12/13/46 64/257/46 73/145/46
f 15/147/5 37/281/5 75/148/5
f 17/18/1 12/20/1 74/150/1
f 77/152/80 74/282/80 73/153/80
f 79/155/5 96/189/5 80/156/5
f 81/158/48 97/283/48 67/159/48
f 71/161/49 86/284/49 83/162/49
f 75/148/50 66/285/50 85/164/50
f 85/165/51 84/185/65 83/166/52
f 82/167/53 83/166/52 86/168/54
f 87/170/16 118/254/16 28/40/16
f 89/172/81 34/47/81 30/173/81
f 34/47/82 89/172/82 91/175/82
f 92/176/83 90/286/83 87/170/83
f 75/178/20 37/52/20 3/3/20
f 93/179/84 87/287/84 88/180/84
f 67/137/62 97/190/62 72/181/62
f 81/169/55 86/168/54 71/182/63
f 76/184/16 119/288/16 84/185/16
f 69/186/25 88/171/25 28/40/25
f 79/155/29 102/203/29 95/188/29
f 97/190/1 102/289/1 79/191/1
f 98/192/16 100/290/16 81/193/16
f 96/195/16 95/194/16 81/193/16
f 99/197/32 105/291/32 100/198/27
f 81/200/26 100/292/26 101/201/26
f 102/203/30 103/293/30 98/204/30
f 97/205/16 101/294/16 103/206/30
f 104/208/31 108/295/31 105/209/31
f 105/211/32 110/296/27 101/212/27
f 106/214/27 99/197/32 98/199/27
f 101/216/27 110/297/27 106/214/27
f 104/217/27 112/234/27 107/218/27
f 109/220/34 111/298/34 106/221/34
f 105/223/26 108/299/26 109/224/26
f 111/226/29 104/300/29 99/227/29
f 112/229/31 120/301/31 113/230/31
f 107/218/27 114/235/27 109/232/27
f 111/233/27 117/302/27 112/234/27
f 114/235/27 117/302/27 111/233/27
f 113/236/27 120/303/27 115/237/27
f 115/239/29 120/304/29 112/240/29
f 114/242/34 116/305/34 115/243/34
f 113/245/26 116/306/26 114/246/26
f 68/138/44 70/140/44 76/149/44
f 70/140/5 9/144/5 15/147/5
f 35/124/85 91/252/85 73/248/85
f 78/154/86 92/307/58 93/179/60
f 82/249/61 93/179/61 68/138/61
f 89/172/87 90/174/87 92/250/87
f 67/251/88 77/152/88 78/154/88
f 91/252/86 92/308/58 78/253/86
f 2/2/1 17/18/1 77/151/1
f 87/170/89 90/286/89 30/135/89
